PathFileType  4	(X/Y/Z) C:\Users\antoi\Documents\MyRepositories\mobilecap\ResultsAnalysis
DataRate	CameraRate	NumFrames	NumMarkers	Units	OrigDataRate	OrigDataStartFrame	OrigNumFrames
100.0	100.0	7	51	mm	100.0	108	143
Frame#	Time	r_knee			r_shank_antsup			r_ankle			r_calc			r_5meta			r_toe			L_knee			L_shank_antsup			L_ankle			L_calc			L_5meta			L_toe			r_sh2			r_sh3			r_sh4			L_sh2			L_sh3			r_thigh1			r_thigh2			r_thigh3			r_thigh4			r_thigh5			L_thigh1			L_thigh2			L_thigh3			L_thigh4			r.ASIS			r.PSIS			L.ASIS			L.PSIS			C7			R_Shoulder			L_Shoulder			R_Sternum			L_Sternum			R_humerus			R_elbow_med			R_elbow_lat			R_forearm			R_wrist_radius			R_wrist_ulna			L_humerus			L_elbow_med			L_elbow_lat			L_forearm			L_wrist_radius			L_wrist_ulna			R_HJC			L_HJC			R_HJC_reg			L_HJC_reg			
		X1	Y1	Z1	X2	Y2	Z2	X3	Y3	Z3	X4	Y4	Z4	X5	Y5	Z5	X6	Y6	Z6	X7	Y7	Z7	X8	Y8	Z8	X9	Y9	Z9	X10	Y10	Z10	X11	Y11	Z11	X12	Y12	Z12	X13	Y13	Z13	X14	Y14	Z14	X15	Y15	Z15	X16	Y16	Z16	X17	Y17	Z17	X18	Y18	Z18	X19	Y19	Z19	X20	Y20	Z20	X21	Y21	Z21	X22	Y22	Z22	X23	Y23	Z23	X24	Y24	Z24	X25	Y25	Z25	X26	Y26	Z26	X27	Y27	Z27	X28	Y28	Z28	X29	Y29	Z29	X30	Y30	Z30	X31	Y31	Z31	X32	Y32	Z32	X33	Y33	Z33	X34	Y34	Z34	X35	Y35	Z35	X36	Y36	Z36	X37	Y37	Z37	X38	Y38	Z38	X39	Y39	Z39	X40	Y40	Z40	X41	Y41	Z41	X42	Y42	Z42	X43	Y43	Z43	X44	Y44	Z44	X45	Y45	Z45	X46	Y46	Z46	X47	Y47	Z47	X48	Y48	Z48	X49	Y49	Z49	X50	Y50	Z50	X51	Y51	Z51	

108	1.07000000	1144.30956	514.94392	-79.60876	1199.08141	434.85319	-88.35519	1201.07710	107.05843	-110.58725	1151.95719	62.00488	-164.86283	1329.24823	79.22376	-71.16632	1353.59883	124.69005	-120.46752	893.53697	502.50490	-321.83153	909.28483	413.00684	-309.33949	780.32020	101.39265	-267.62078	707.03729	68.73036	-213.13529	877.04097	36.17393	-306.09661	930.40643	60.11351	-252.94500	1216.59998	323.52337	-94.86403	1135.98318	422.01226	-48.44269	1146.75353	307.36413	-50.65360	828.67462	442.36849	-339.46767	795.12934	326.00858	-333.88609	1095.73719	791.73191	-55.68224	1141.51470	692.17942	-73.03905	1108.90008	645.68040	-34.05311	1002.58297	743.33124	-18.20930	1052.10921	640.97265	-44.25690	1020.68017	729.90732	-357.71073	1006.10422	594.06379	-326.27123	916.98463	733.39364	-390.31253	900.77825	606.34498	-349.78407	1077.70286	962.33234	-93.23259	874.51769	1003.89720	-162.63399	1072.15356	946.29327	-345.40734	873.60080	1005.57558	-256.87379	960.97314	1447.15519	-299.98067	1028.37915	1440.07621	-127.24242	1047.33156	1376.38817	-439.97177	1077.92022	1369.92332	-256.08391	1076.89412	1362.55050	-301.53711	1050.70215	1319.55027	-48.05375	937.97368	1130.69640	-44.13864	954.03419	1151.07826	18.53181	1006.78417	1084.17593	45.39534	1043.12274	914.53365	39.44366	1013.79748	923.92282	79.60451	1081.34801	1230.32698	-465.45396	1007.42755	1038.82032	-399.38449	1042.60037	1037.74482	-471.23029	1099.56709	987.74523	-460.54211	1159.15092	831.31843	-398.29665	1133.85675	821.88539	-440.53777	989.53831	879.70703	-108.31714	982.59370	871.40995	-297.57105	1000.37224	879.29115	-129.21084	998.74795	882.26375	-295.98622	
109	1.08000000	1154.96996	512.01671	-81.82118	1212.39868	434.51462	-90.51099	1229.78913	107.13500	-115.20314	1182.07597	60.33078	-169.39093	1359.48709	84.72835	-76.91279	1381.40312	131.52258	-126.16931	898.70456	501.85949	-322.76367	913.12567	412.29145	-310.25622	780.93651	102.31321	-267.59487	707.44757	69.92788	-212.95263	877.02665	35.97703	-306.10870	930.48059	59.65967	-253.08246	1234.73691	324.04167	-97.82505	1149.60574	418.68382	-51.17921	1165.24028	304.59388	-54.45521	832.62171	442.59977	-340.08413	797.77516	326.66206	-334.16091	1108.06074	788.89843	-57.94169	1152.88151	688.90356	-75.53167	1120.33977	642.78011	-36.34743	1014.78606	741.22791	-19.83008	1063.42185	638.48891	-46.19495	1029.10188	727.58540	-359.28185	1012.88245	591.96494	-327.71800	925.37479	732.44083	-391.45898	907.48071	605.69709	-350.50522	1090.44547	960.10367	-95.21024	886.71784	1001.37121	-163.70460	1083.37958	943.73912	-347.43546	885.37817	1003.25565	-257.86684	971.85926	1445.77657	-297.60364	1039.12249	1436.49272	-125.02367	1058.16029	1377.21097	-438.69767	1088.99035	1368.16147	-254.87587	1087.95034	1361.42549	-300.39112	1061.37352	1315.25351	-47.03646	949.50813	1125.88537	-45.01628	964.84584	1146.10799	17.85025	1017.61955	1079.40901	44.98995	1055.10554	910.03661	38.57750	1025.23711	919.03134	78.43886	1091.90170	1231.21162	-465.76859	1017.37809	1039.24105	-401.42352	1052.95311	1038.66706	-473.05884	1110.24730	988.93312	-462.19749	1170.90197	833.03811	-399.88300	1145.86080	823.39175	-442.21659	1002.12563	877.40448	-109.82200	994.15543	868.92531	-299.02718	1012.92169	876.49169	-131.01606	1010.54547	879.83343	-297.84602	
110	1.09000000	1165.72857	509.01092	-84.01637	1225.61949	433.99372	-92.79096	1256.87869	107.52383	-120.11742	1210.59654	59.22714	-174.36530	1387.57594	90.27004	-82.51525	1407.27772	138.17197	-131.57027	904.38097	501.15341	-323.88465	917.40758	411.49367	-311.33915	781.65330	103.33132	-267.72190	707.91133	71.31389	-212.89357	877.06025	35.73739	-306.13103	930.54898	59.14944	-253.20167	1252.29087	324.47530	-100.95511	1163.22248	415.40101	-53.95641	1183.28553	302.01294	-58.32098	837.12921	442.85617	-340.90696	800.80079	327.37119	-334.63303	1120.39013	785.84162	-59.82341	1164.24851	685.42052	-77.75436	1131.65565	639.61159	-38.52451	1026.84518	738.83118	-21.54383	1074.65247	635.74435	-48.19230	1037.86454	725.23946	-360.88626	1020.12327	589.86144	-329.23756	934.14903	731.40452	-392.70093	914.59852	604.99471	-351.40974	1103.26451	957.63983	-97.11685	899.04249	998.71666	-164.69326	1094.78674	941.06768	-349.42071	897.28962	1000.87288	-258.79843	982.80213	1444.22709	-295.13659	1049.96556	1432.72405	-122.70346	1069.00451	1377.78222	-437.31868	1100.14925	1366.24250	-253.58047	1099.09016	1360.13541	-299.15122	1072.08456	1310.76636	-45.92283	961.17633	1120.82495	-45.93897	975.75414	1140.90167	17.12352	1028.55105	1074.39661	44.55345	1067.21352	905.32774	37.65225	1036.77269	913.89282	77.18325	1102.46216	1231.85741	-466.00087	1027.32174	1039.43157	-403.47938	1063.31894	1039.39231	-474.87740	1120.90474	989.89592	-463.87452	1182.55106	834.48949	-401.55742	1157.72300	824.65011	-444.00686	1014.77820	874.90322	-111.31535	1005.82284	866.34627	-300.47278	1025.56013	873.47161	-132.81852	1022.44865	877.29848	-299.71372	
111	1.10000000	1176.77917	506.05054	-86.22438	1238.89652	433.29378	-95.25910	1282.10949	108.01494	-125.32999	1237.35921	58.49341	-179.86039	1413.37136	95.39598	-87.99999	1431.13128	144.29876	-136.61806	910.60233	500.42344	-325.19202	922.17434	410.63886	-312.56693	782.46071	104.42793	-268.00339	708.44189	72.93757	-212.97939	877.15565	35.47214	-306.17616	930.65676	58.60565	-253.33160	1269.33501	324.75758	-104.30234	1176.99787	412.24054	-56.76568	1200.96182	299.62194	-62.19547	842.26896	443.14745	-341.94408	804.26257	328.14906	-335.33541	1132.72889	782.65497	-61.34260	1175.69414	681.86549	-79.71994	1142.95218	636.28283	-40.56546	1038.82887	736.19222	-23.32794	1085.89269	632.82267	-50.22078	1046.99805	722.91242	-362.52136	1027.84255	587.78383	-330.83468	943.32789	730.31223	-394.03083	922.14189	604.27488	-352.48802	1116.14412	954.96840	-98.96503	911.47177	995.99634	-165.60313	1106.37465	938.35936	-351.38399	909.32808	998.47894	-259.68679	993.83920	1442.55602	-292.57943	1060.94432	1428.82816	-120.27963	1079.88524	1378.12974	-435.83932	1111.43460	1364.21179	-252.19340	1110.33646	1358.71963	-297.81877	1082.87492	1306.14709	-44.72304	973.02095	1115.58926	-46.92382	986.78501	1135.52468	16.34300	1039.60928	1069.19732	44.06233	1079.44707	900.45543	36.65108	1048.40578	908.55920	75.81406	1113.03600	1232.28997	-466.14962	1037.30711	1039.41459	-405.52291	1073.71974	1039.94420	-476.66069	1131.55689	990.65214	-465.56051	1194.08758	835.66908	-403.32641	1169.44775	825.66189	-445.89184	1027.47809	872.23986	-112.82709	1017.58609	863.74317	-301.94029	1038.24946	870.31114	-134.63415	1034.44303	874.71844	-301.60787	
112	1.11000000	1188.30011	503.24821	-88.49615	1252.34484	432.40028	-97.94023	1305.25836	108.37954	-130.77878	1262.18213	57.87059	-185.84452	1436.78700	99.69494	-93.37263	1452.91203	149.57861	-141.29653	917.39892	499.70110	-326.67684	927.47713	409.74755	-313.90769	783.36715	105.61801	-268.44131	709.06035	74.85286	-213.22538	877.32051	35.19780	-306.25648	930.85698	58.05876	-253.50298	1285.89587	324.79444	-107.86908	1191.00664	409.26287	-59.62976	1218.23965	297.40145	-66.06233	848.08988	443.47121	-343.19326	808.22349	329.00730	-336.28749	1145.10186	779.45576	-62.53289	1187.31859	678.40264	-81.45735	1154.36497	632.92327	-42.48035	1050.83282	733.37267	-25.16189	1097.26930	629.82595	-52.26698	1056.52680	720.63809	-364.18527	1036.03697	585.75287	-332.50952	952.92802	729.19648	-395.44046	930.14555	603.55969	-353.71704	1129.07291	952.13671	-100.75762	923.99128	993.26997	-166.44099	1118.15212	935.69230	-353.33475	921.49907	996.11672	-260.55152	1005.00401	1440.81439	-289.93224	1072.08649	1424.86594	-117.75867	1090.84102	1378.30115	-434.26108	1122.87491	1362.11454	-250.71039	1121.71070	1357.21928	-296.39469	1093.78572	1301.45548	-43.45627	985.08016	1110.26336	-47.98506	997.96749	1130.04939	15.50405	1050.82214	1063.87709	43.49486	1091.81064	895.47615	35.55563	1060.14096	903.09097	74.31151	1123.64323	1232.54945	-466.20956	1047.39010	1039.22088	-407.53061	1084.17335	1040.35937	-478.38348	1142.21728	991.22920	-467.23964	1205.50037	836.58276	-405.19414	1181.03991	826.44308	-447.85937	1040.21871	869.46260	-114.37408	1029.45342	861.18122	-303.44871	1050.95998	867.09740	-136.46913	1046.53518	872.14984	-303.53807	
113	1.12000000	1200.42604	500.68618	-90.89874	1266.02365	431.27528	-100.82467	1326.14690	108.39488	-136.34614	1284.86447	57.07683	-192.16355	1457.78054	102.86877	-98.60794	1472.59780	153.72964	-145.64523	924.79364	499.00328	-328.32055	933.36656	408.82652	-315.32560	784.39782	106.94182	-269.03580	709.79305	77.11386	-213.63426	877.55664	34.92684	-306.38059	931.19178	57.53483	-253.73344	1301.95074	324.46860	-111.61801	1205.22771	406.49561	-62.59874	1234.99282	295.30156	-69.94588	854.61748	443.81395	-344.63927	812.74710	329.95291	-337.48922	1157.55451	776.36876	-63.44635	1199.23477	675.19844	-83.01279	1166.05194	629.66730	-44.31382	1062.97227	730.43643	-27.04189	1108.93723	626.86035	-54.34247	1066.47342	718.43720	-365.87592	1044.69863	583.77988	-334.25484	962.96069	728.08799	-396.92219	938.66798	602.85026	-355.06500	1142.04924	949.21043	-102.48687	936.60059	990.58604	-167.22189	1130.13346	933.13093	-355.27196	933.82158	993.81580	-261.40879	1016.31778	1439.04848	-287.19416	1083.41116	1420.89598	-115.15626	1101.91419	1378.35209	-432.58041	1134.48281	1359.99039	-249.12809	1133.23200	1355.67283	-294.87889	1104.85632	1296.75003	-42.14456	997.38098	1104.93471	-49.13102	1009.32776	1124.54852	14.60633	1062.21153	1058.50284	42.83717	1104.30952	890.45118	34.34735	1071.98613	897.55311	72.66489	1134.31181	1232.68827	-466.17104	1057.63387	1038.88954	-409.48354	1094.69414	1040.68647	-480.02239	1152.89515	991.66387	-468.89432	1216.77657	837.24443	-407.16293	1192.49660	827.02456	-449.90675	1053.01006	866.62847	-115.95727	1041.45163	858.71119	-305.00021	1063.68296	863.91002	-138.31687	1058.75076	869.63890	-305.50286	
114	1.13000000	1213.22407	498.40215	-93.50420	1279.92970	429.86065	-103.88701	1344.66843	107.88229	-141.88465	1305.20294	55.87068	-198.57333	1476.34075	104.76361	-103.65654	1490.19362	156.52807	-149.76445	932.80002	498.32705	-330.09082	939.88408	407.86428	-316.78932	785.58712	108.44718	-269.78070	710.66645	79.77017	-214.19544	877.86126	34.66646	-306.54986	931.68144	57.04679	-254.02175	1317.43932	323.65548	-115.49400	1219.56519	403.92631	-65.73426	1251.03848	293.24292	-73.89667	861.86157	444.15573	-346.24871	817.88583	330.98629	-338.91881	1170.14933	773.50255	-64.15019	1211.55119	672.38497	-84.44738	1178.16788	626.63070	-46.13963	1075.36374	727.44494	-28.98693	1121.05446	624.01931	-56.48691	1076.85918	716.31753	-367.59076	1053.83186	581.86845	-336.05785	973.43191	727.00588	-398.46901	947.76956	602.13091	-356.50040	1155.08867	946.26846	-104.13813	949.32159	987.97378	-167.97300	1142.33372	930.71754	-357.18829	946.32146	991.59065	-262.26731	1027.78432	1437.29365	-284.36043	1094.92916	1416.96927	-112.49392	1113.13834	1378.33475	-430.78820	1146.25480	1357.87108	-247.44456	1144.91471	1354.11358	-293.27005	1116.12224	1292.08484	-40.80676	1009.93356	1099.68512	-50.36042	1020.88307	1119.08826	13.65429	1073.79175	1053.13630	42.08684	1116.94682	885.44051	33.01082	1083.95120	892.00961	70.87643	1145.07339	1232.76693	-466.02022	1068.09708	1038.46936	-411.36384	1105.29540	1040.98294	-481.55687	1163.59834	992.00138	-470.50663	1227.90096	837.67428	-409.23437	1203.80445	827.44684	-452.03982	1065.88354	863.79812	-117.56352	1053.62314	856.36269	-306.58145	1076.44875	860.80493	-140.15604	1071.12578	867.21752	-307.48723	
